<svg width="222" height="221" viewBox="0 0 222 221" fill="none" xmlns="http://www.w3.org/2000/svg">
<path d="M15.8664 21.5841C15.8664 18.2215 18.5923 15.4956 21.955 15.4956H32.6099C35.9725 15.4956 38.6985 18.2215 38.6985 21.5841V32.2388C38.6985 35.6014 35.9725 38.3273 32.6099 38.3273H21.955C18.5923 38.3273 15.8664 35.6014 15.8664 32.2388V21.5841Z" fill="white"/>
<path fill-rule="evenodd" clip-rule="evenodd" d="M6.73357 0.274536C3.37096 0.274536 0.64502 3.00042 0.64502 6.36297V47.4599C0.64502 50.8225 3.37096 53.5484 6.73357 53.5484H47.8313C51.1939 53.5484 53.9198 50.8225 53.9198 47.4599V6.36297C53.9198 3.00042 51.1939 0.274536 47.8313 0.274536H6.73357ZM46.3092 39.8494C46.3092 43.2119 43.5832 45.9378 40.2206 45.9378H14.3443C10.9816 45.9378 8.25571 43.2119 8.25571 39.8494V13.9735C8.25571 10.611 10.9816 7.88508 14.3443 7.88508H40.2206C43.5832 7.88508 46.3092 10.611 46.3092 13.9735V39.8494Z" fill="white"/>
<path d="M189.39 15.4956C186.028 15.4956 183.302 18.2215 183.302 21.5841V32.2388C183.302 35.6014 186.028 38.3273 189.39 38.3273H200.045C203.408 38.3273 206.134 35.6014 206.134 32.2388V21.5841C206.134 18.2215 203.408 15.4956 200.045 15.4956H189.39Z" fill="white"/>
<path fill-rule="evenodd" clip-rule="evenodd" d="M174.169 0.274536C170.806 0.274536 168.08 3.00042 168.08 6.36297V47.4599C168.08 50.8225 170.806 53.5484 174.169 53.5484H215.266C218.629 53.5484 221.355 50.8225 221.355 47.4599V6.36297C221.355 3.00042 218.629 0.274536 215.266 0.274536H174.169ZM213.744 39.8494C213.744 43.2119 211.018 45.9378 207.656 45.9378H181.779C178.417 45.9378 175.691 43.2119 175.691 39.8494V13.9735C175.691 10.611 178.417 7.88508 181.779 7.88508H207.656C211.018 7.88508 213.744 10.611 213.744 13.9735V39.8494Z" fill="white"/>
<path d="M21.955 182.928C18.5923 182.928 15.8664 185.654 15.8664 189.016V199.671C15.8664 203.033 18.5923 205.759 21.955 205.759H32.6099C35.9725 205.759 38.6985 203.033 38.6985 199.671V189.016C38.6985 185.654 35.9725 182.928 32.6099 182.928H21.955Z" fill="white"/>
<path fill-rule="evenodd" clip-rule="evenodd" d="M6.73357 167.707C3.37096 167.707 0.64502 170.432 0.64502 173.795V214.892C0.64502 218.255 3.37096 220.98 6.73357 220.98H47.8313C51.1939 220.98 53.9198 218.255 53.9198 214.892V173.795C53.9198 170.432 51.1939 167.707 47.8313 167.707H6.73357ZM46.3092 207.281C46.3092 210.644 43.5832 213.37 40.2206 213.37H14.3443C10.9816 213.37 8.25571 210.644 8.25571 207.281V181.406C8.25571 178.043 10.9816 175.317 14.3443 175.317H40.2206C43.5832 175.317 46.3092 178.043 46.3092 181.406V207.281Z" fill="white"/>
<path d="M71.4244 0.274536H89.6901C90.9511 0.274536 91.9733 1.29674 91.9733 2.5577V5.60192C91.9733 6.86288 92.9955 7.88508 94.2565 7.88508H97.3008C98.5618 7.88508 99.584 6.86288 99.584 5.60192V2.5577C99.584 1.29674 100.606 0.274536 101.867 0.274536H104.911C106.172 0.274536 107.195 1.29674 107.195 2.5577V13.2125C107.195 14.4734 106.172 15.4956 104.911 15.4956H94.2565C92.9955 15.4956 91.9733 16.5178 91.9733 17.7788V28.4336C91.9733 29.6945 90.9511 30.7167 89.6901 30.7167H86.6458C85.3848 30.7167 84.3626 31.7389 84.3626 32.9999V51.2652C84.3626 52.5262 83.3404 53.5484 82.0794 53.5484H79.0351C77.7741 53.5484 76.7519 52.5262 76.7519 51.2652V48.221C76.7519 46.96 75.7297 45.9378 74.4687 45.9378H71.4244C70.1635 45.9378 69.1412 44.9156 69.1412 43.6547V40.6104C69.1412 39.3495 70.1635 38.3273 71.4244 38.3273H74.4687C75.7297 38.3273 76.7519 37.3051 76.7519 36.0441V25.3893C76.7519 24.1284 75.7297 23.1062 74.4687 23.1062H71.4244C70.1635 23.1062 69.1412 22.084 69.1412 20.823V17.7788C69.1412 16.5178 70.1635 15.4956 71.4244 15.4956H82.0794C83.3404 15.4956 84.3626 14.4734 84.3626 13.2125V10.1682C84.3626 8.90729 83.3404 7.88508 82.0794 7.88508H71.4244C70.1635 7.88508 69.1412 6.86288 69.1412 5.60192V2.5577C69.1412 1.29674 70.1635 0.274536 71.4244 0.274536Z" fill="white"/>
<path d="M122.416 10.1682C122.416 8.90729 123.438 7.88508 124.699 7.88508H135.354C136.615 7.88508 137.637 8.90729 137.637 10.1682V13.2125C137.637 14.4734 136.615 15.4956 135.354 15.4956H132.31C131.049 15.4956 130.027 16.5178 130.027 17.7788V20.823C130.027 22.084 131.049 23.1062 132.31 23.1062H135.354C136.615 23.1062 137.637 24.1284 137.637 25.3893V28.4336C137.637 29.6945 138.66 30.7167 139.921 30.7167H150.576C151.837 30.7167 152.859 29.6945 152.859 28.4336V25.3893C152.859 24.1284 153.881 23.1062 155.142 23.1062H158.186C159.447 23.1062 160.47 24.1284 160.47 25.3893V36.0441C160.47 37.3051 159.447 38.3273 158.186 38.3273H132.31C131.049 38.3273 130.027 37.3051 130.027 36.0441V32.9999C130.027 31.7389 129.005 30.7167 127.744 30.7167H109.478C108.217 30.7167 107.195 31.7389 107.195 32.9999V36.0441C107.195 37.3051 106.172 38.3273 104.911 38.3273H94.2565C92.9955 38.3273 91.9733 37.3051 91.9733 36.0441V32.9999C91.9733 31.7389 92.9955 30.7167 94.2565 30.7167H97.3008C98.5618 30.7167 99.584 29.6945 99.584 28.4336V25.3893C99.584 24.1284 100.606 23.1062 101.867 23.1062H104.911C106.172 23.1062 107.195 22.084 107.195 20.823V17.7788C107.195 16.5178 108.217 15.4956 109.478 15.4956H120.133C121.394 15.4956 122.416 14.4734 122.416 13.2125V10.1682Z" fill="white"/>
<path d="M69.1412 25.3893C69.1412 24.1284 68.119 23.1062 66.858 23.1062H63.8137C62.5528 23.1062 61.5305 24.1284 61.5305 25.3893V36.0441C61.5305 37.3051 62.5528 38.3273 63.8137 38.3273H66.858C68.119 38.3273 69.1412 37.3051 69.1412 36.0441V25.3893Z" fill="white"/>
<path d="M107.195 40.6104C107.195 39.3495 108.217 38.3273 109.478 38.3273H112.522C113.783 38.3273 114.805 39.3495 114.805 40.6104V51.2652C114.805 52.5262 115.828 53.5484 117.089 53.5484H120.133C121.394 53.5484 122.416 52.5262 122.416 51.2652V48.221C122.416 46.96 123.438 45.9378 124.699 45.9378H127.744C129.005 45.9378 130.027 46.96 130.027 48.221V58.8758C130.027 60.1367 129.005 61.1589 127.744 61.1589H117.089C115.828 61.1589 114.805 62.1811 114.805 63.4421V66.4863C114.805 67.7473 113.783 68.7695 112.522 68.7695H94.2565C92.9955 68.7695 91.9733 67.7473 91.9733 66.4863V48.221C91.9733 46.96 92.9955 45.9378 94.2565 45.9378H97.3008C98.5618 45.9378 99.584 46.96 99.584 48.221V58.8758C99.584 60.1367 100.606 61.1589 101.867 61.1589H104.911C106.172 61.1589 107.195 60.1367 107.195 58.8758V40.6104Z" fill="white"/>
<path d="M2.92823 61.1589H13.5832C14.8442 61.1589 15.8664 62.1811 15.8664 63.4421V66.4863C15.8664 67.7473 16.8886 68.7695 18.1496 68.7695H36.4153C37.6762 68.7695 38.6985 67.7473 38.6985 66.4863V63.4421C38.6985 62.1811 39.7207 61.1589 40.9817 61.1589H59.2473C60.5083 61.1589 61.5305 62.1811 61.5305 63.4421V66.4863C61.5305 67.7473 60.5083 68.7695 59.2473 68.7695H48.5924C47.3314 68.7695 46.3092 69.7917 46.3092 71.0526V74.0968C46.3092 75.3578 45.2869 76.38 44.026 76.38H10.5389C9.27794 76.38 8.25571 75.3578 8.25571 74.0968V71.0526C8.25571 69.7917 7.23348 68.7695 5.9725 68.7695H2.92823C1.66725 68.7695 0.64502 67.7473 0.64502 66.4863V63.4421C0.64502 62.1811 1.66725 61.1589 2.92823 61.1589Z" fill="white"/>
<path d="M76.7519 55.8315C76.7519 54.5706 75.7297 53.5484 74.4687 53.5484H71.4244C70.1635 53.5484 69.1412 54.5706 69.1412 55.8315V66.4863C69.1412 67.7473 70.1635 68.7695 71.4244 68.7695H74.4687C75.7297 68.7695 76.7519 69.7917 76.7519 71.0526V74.0968C76.7519 75.3578 77.7741 76.38 79.0351 76.38H82.0794C83.3404 76.38 84.3626 75.3578 84.3626 74.0968V63.4421C84.3626 62.1811 83.3404 61.1589 82.0794 61.1589H79.0351C77.7741 61.1589 76.7519 60.1367 76.7519 58.8758V55.8315Z" fill="white"/>
<path d="M185.585 61.1589H196.24C197.501 61.1589 198.523 62.1811 198.523 63.4421V66.4863C198.523 67.7473 197.501 68.7695 196.24 68.7695H193.195C191.934 68.7695 190.912 69.7917 190.912 71.0526V74.0968C190.912 75.3578 189.89 76.38 188.629 76.38H177.974C176.713 76.38 175.691 75.3578 175.691 74.0968V71.0526C175.691 69.7917 176.713 68.7695 177.974 68.7695H181.018C182.279 68.7695 183.302 67.7473 183.302 66.4863V63.4421C183.302 62.1811 184.324 61.1589 185.585 61.1589Z" fill="white"/>
<path d="M200.806 68.7695C199.545 68.7695 198.523 69.7917 198.523 71.0526V74.0968C198.523 75.3578 199.545 76.38 200.806 76.38H211.461C212.722 76.38 213.744 75.3578 213.744 74.0968V71.0526C213.744 69.7917 212.722 68.7695 211.461 68.7695H200.806Z" fill="white"/>
<path d="M216.028 91.6011C214.767 91.6011 213.744 92.6233 213.744 93.8843V96.9285C213.744 98.1895 212.722 99.2117 211.461 99.2117H208.417C207.156 99.2117 206.134 100.234 206.134 101.495V104.539C206.134 105.8 207.156 106.822 208.417 106.822H219.072C220.333 106.822 221.355 105.8 221.355 104.539V93.8843C221.355 92.6233 220.333 91.6011 219.072 91.6011H216.028Z" fill="white"/>
<path d="M160.47 48.221C160.47 46.96 159.447 45.9378 158.186 45.9378H155.142C153.881 45.9378 152.859 46.96 152.859 48.221V51.2652C152.859 52.5262 151.837 53.5484 150.576 53.5484H147.531C146.27 53.5484 145.248 54.5706 145.248 55.8315V58.8758C145.248 60.1367 144.226 61.1589 142.965 61.1589H132.31C131.049 61.1589 130.027 62.1811 130.027 63.4421V74.0968C130.027 75.3578 129.005 76.38 127.744 76.38H124.699C123.438 76.38 122.416 75.3578 122.416 74.0968V71.0526C122.416 69.7917 121.394 68.7695 120.133 68.7695H117.089C115.828 68.7695 114.805 69.7917 114.805 71.0526V74.0968C114.805 75.3578 113.783 76.38 112.522 76.38H86.6458C85.3848 76.38 84.3626 77.4022 84.3626 78.6632V81.7074C84.3626 82.9684 83.3404 83.9906 82.0794 83.9906H79.0351C77.7741 83.9906 76.7519 85.0128 76.7519 86.2737V89.3179C76.7519 90.5789 75.7297 91.6011 74.4687 91.6011H63.8137C62.5528 91.6011 61.5305 92.6233 61.5305 93.8843V96.9285C61.5305 98.1895 60.5083 99.2117 59.2473 99.2117H56.2031C54.9421 99.2117 53.9198 100.234 53.9198 101.495V104.539C53.9198 105.8 52.8976 106.822 51.6366 106.822H33.371C32.11 106.822 31.0878 107.844 31.0878 109.105V112.15C31.0878 113.411 32.11 114.433 33.371 114.433H51.6366C52.8976 114.433 53.9198 115.455 53.9198 116.716V119.76C53.9198 121.021 54.9421 122.043 56.2031 122.043H59.2473C60.5083 122.043 61.5305 121.021 61.5305 119.76V116.716C61.5305 115.455 62.5528 114.433 63.8137 114.433H66.858C68.119 114.433 69.1412 113.411 69.1412 112.15V101.495C69.1412 100.234 70.1635 99.2117 71.4244 99.2117H74.4687C75.7297 99.2117 76.7519 100.234 76.7519 101.495V112.15C76.7519 113.411 75.7297 114.433 74.4687 114.433H71.4244C70.1635 114.433 69.1412 115.455 69.1412 116.716V119.76C69.1412 121.021 70.1635 122.043 71.4244 122.043H74.4687C75.7297 122.043 76.7519 123.065 76.7519 124.326V127.371C76.7519 128.632 77.7741 129.654 79.0351 129.654H82.0794C83.3404 129.654 84.3626 128.632 84.3626 127.371V93.8843C84.3626 92.6233 85.3848 91.6011 86.6458 91.6011H89.6901C90.9511 91.6011 91.9733 90.5789 91.9733 89.3179V86.2737C91.9733 85.0128 92.9955 83.9906 94.2565 83.9906H104.911C106.172 83.9906 107.195 85.0128 107.195 86.2737V89.3179C107.195 90.5789 108.217 91.6011 109.478 91.6011H112.522C113.783 91.6011 114.805 90.5789 114.805 89.3179V86.2737C114.805 85.0128 115.828 83.9906 117.089 83.9906H120.133C121.394 83.9906 122.416 85.0128 122.416 86.2737V89.3179C122.416 90.5789 121.394 91.6011 120.133 91.6011H117.089C115.828 91.6011 114.805 92.6233 114.805 93.8843V112.15C114.805 113.411 115.828 114.433 117.089 114.433H120.133C121.394 114.433 122.416 113.411 122.416 112.15V109.105C122.416 107.844 123.438 106.822 124.699 106.822H135.354C136.615 106.822 137.637 107.844 137.637 109.105V112.15C137.637 113.411 138.66 114.433 139.921 114.433H142.965C144.226 114.433 145.248 113.411 145.248 112.15V109.105C145.248 107.844 146.27 106.822 147.531 106.822H150.576C151.837 106.822 152.859 107.844 152.859 109.105V119.76C152.859 121.021 153.881 122.043 155.142 122.043H173.408C174.669 122.043 175.691 123.065 175.691 124.326V127.371C175.691 128.632 174.669 129.654 173.408 129.654H170.363C169.102 129.654 168.08 130.676 168.08 131.937V134.981C168.08 136.242 169.102 137.264 170.363 137.264H188.629C189.89 137.264 190.912 136.242 190.912 134.981V131.937C190.912 130.676 189.89 129.654 188.629 129.654H185.585C184.324 129.654 183.302 128.632 183.302 127.371V124.326C183.302 123.065 184.324 122.043 185.585 122.043H188.629C189.89 122.043 190.912 121.021 190.912 119.76V116.716C190.912 115.455 189.89 114.433 188.629 114.433H185.585C184.324 114.433 183.302 113.411 183.302 112.15V109.105C183.302 107.844 182.279 106.822 181.018 106.822H177.974C176.713 106.822 175.691 105.8 175.691 104.539V101.495C175.691 100.234 176.713 99.2117 177.974 99.2117H181.018C182.279 99.2117 183.302 98.1895 183.302 96.9285V86.2737C183.302 85.0128 182.279 83.9906 181.018 83.9906H177.974C176.713 83.9906 175.691 85.0128 175.691 86.2737V89.3179C175.691 90.5789 174.669 91.6011 173.408 91.6011H170.363C169.102 91.6011 168.08 92.6233 168.08 93.8843V104.539C168.08 105.8 167.058 106.822 165.797 106.822H162.753C161.492 106.822 160.47 105.8 160.47 104.539V86.2737C160.47 85.0128 159.447 83.9906 158.186 83.9906H147.531C146.27 83.9906 145.248 85.0128 145.248 86.2737V89.3179C145.248 90.5789 146.27 91.6011 147.531 91.6011H150.576C151.837 91.6011 152.859 92.6233 152.859 93.8843V96.9285C152.859 98.1895 151.837 99.2117 150.576 99.2117H132.31C131.049 99.2117 130.027 98.1895 130.027 96.9285V86.2737C130.027 85.0128 131.049 83.9906 132.31 83.9906H135.354C136.615 83.9906 137.637 82.9684 137.637 81.7074V78.6632C137.637 77.4022 138.66 76.38 139.921 76.38H158.186C159.447 76.38 160.47 75.3578 160.47 74.0968V71.0526C160.47 69.7917 159.447 68.7695 158.186 68.7695H155.142C153.881 68.7695 152.859 67.7473 152.859 66.4863V63.4421C152.859 62.1811 153.881 61.1589 155.142 61.1589H158.186C159.447 61.1589 160.47 60.1367 160.47 58.8758V48.221Z" fill="white"/>
<path d="M193.195 106.822C191.934 106.822 190.912 107.844 190.912 109.105V112.15C190.912 113.411 191.934 114.433 193.195 114.433H196.24C197.501 114.433 198.523 115.455 198.523 116.716V119.76C198.523 121.021 197.501 122.043 196.24 122.043H193.195C191.934 122.043 190.912 123.065 190.912 124.326V127.371C190.912 128.632 191.934 129.654 193.195 129.654H196.24C197.501 129.654 198.523 130.676 198.523 131.937V134.981C198.523 136.242 199.545 137.264 200.806 137.264H211.461C212.722 137.264 213.744 138.287 213.744 139.548V142.592C213.744 143.853 214.767 144.875 216.028 144.875H219.072C220.333 144.875 221.355 143.853 221.355 142.592V131.937C221.355 130.676 220.333 129.654 219.072 129.654H208.417C207.156 129.654 206.134 128.632 206.134 127.371V109.105C206.134 107.844 205.111 106.822 203.85 106.822H193.195Z" fill="white"/>
<path d="M2.92823 99.2117C1.66725 99.2117 0.64502 100.234 0.64502 101.495V157.813C0.64502 159.074 1.66725 160.096 2.92823 160.096H5.9725C7.23348 160.096 8.25571 159.074 8.25571 157.813V147.158C8.25571 145.897 9.27794 144.875 10.5389 144.875H13.5832C14.8442 144.875 15.8664 143.853 15.8664 142.592V139.548C15.8664 138.287 14.8442 137.264 13.5832 137.264H10.5389C9.27794 137.264 8.25571 136.242 8.25571 134.981V131.937C8.25571 130.676 9.27794 129.654 10.5389 129.654H13.5832C14.8442 129.654 15.8664 128.632 15.8664 127.371V116.716C15.8664 115.455 14.8442 114.433 13.5832 114.433H10.5389C9.27794 114.433 8.25571 113.411 8.25571 112.15V109.105C8.25571 107.844 9.27794 106.822 10.5389 106.822H13.5832C14.8442 106.822 15.8664 105.8 15.8664 104.539V101.495C15.8664 100.234 14.8442 99.2117 13.5832 99.2117H2.92823Z" fill="white"/>
<path d="M40.9817 137.264H51.6366C52.8976 137.264 53.9198 138.287 53.9198 139.548V142.592C53.9198 143.853 52.8976 144.875 51.6366 144.875H48.5924C47.3314 144.875 46.3092 145.897 46.3092 147.158V150.202C46.3092 151.463 45.2869 152.485 44.026 152.485H33.371C32.11 152.485 31.0878 153.508 31.0878 154.769V157.813C31.0878 159.074 30.0656 160.096 28.8046 160.096H18.1496C16.8886 160.096 15.8664 159.074 15.8664 157.813V147.158C15.8664 145.897 16.8886 144.875 18.1496 144.875H36.4153C37.6762 144.875 38.6985 143.853 38.6985 142.592V139.548C38.6985 138.287 39.7207 137.264 40.9817 137.264Z" fill="white"/>
<path d="M198.523 154.769C198.523 153.508 199.545 152.485 200.806 152.485H219.072C220.333 152.485 221.355 153.508 221.355 154.769V157.813C221.355 159.074 220.333 160.096 219.072 160.096H200.806C199.545 160.096 198.523 159.074 198.523 157.813V154.769Z" fill="white"/>
<path d="M66.858 137.264C68.119 137.264 69.1412 138.287 69.1412 139.548V150.202C69.1412 151.463 70.1635 152.485 71.4244 152.485H74.4687C75.7297 152.485 76.7519 153.508 76.7519 154.769V157.813C76.7519 159.074 75.7297 160.096 74.4687 160.096H71.4244C70.1635 160.096 69.1412 161.118 69.1412 162.379V165.423C69.1412 166.684 70.1635 167.707 71.4244 167.707H82.0794C83.3404 167.707 84.3626 168.729 84.3626 169.99V173.034C84.3626 174.295 85.3848 175.317 86.6458 175.317H89.6901C90.9511 175.317 91.9733 176.339 91.9733 177.6V180.645C91.9733 181.905 90.9511 182.928 89.6901 182.928H86.6458C85.3848 182.928 84.3626 183.95 84.3626 185.211V188.255C84.3626 189.516 85.3848 190.538 86.6458 190.538H89.6901C90.9511 190.538 91.9733 189.516 91.9733 188.255V185.211C91.9733 183.95 92.9955 182.928 94.2565 182.928H97.3008C98.5618 182.928 99.584 183.95 99.584 185.211V203.476C99.584 204.737 98.5618 205.759 97.3008 205.759H94.2565C92.9955 205.759 91.9733 204.737 91.9733 203.476V200.432C91.9733 199.171 90.9511 198.149 89.6901 198.149H86.6458C85.3848 198.149 84.3626 199.171 84.3626 200.432V203.476C84.3626 204.737 83.3404 205.759 82.0794 205.759H79.0351C77.7741 205.759 76.7519 204.737 76.7519 203.476V185.211C76.7519 183.95 75.7297 182.928 74.4687 182.928H63.8137C62.5528 182.928 61.5305 181.905 61.5305 180.645V154.769C61.5305 153.508 60.5083 152.485 59.2473 152.485H56.2031C54.9421 152.485 53.9198 151.463 53.9198 150.202V147.158C53.9198 145.897 54.9421 144.875 56.2031 144.875H59.2473C60.5083 144.875 61.5305 143.853 61.5305 142.592V139.548C61.5305 138.287 62.5528 137.264 63.8137 137.264H66.858Z" fill="white"/>
<path fill-rule="evenodd" clip-rule="evenodd" d="M91.9733 147.158C91.9733 145.897 90.9511 144.875 89.6901 144.875H86.6458C85.3848 144.875 84.3626 145.897 84.3626 147.158V157.813C84.3626 159.074 85.3848 160.096 86.6458 160.096H89.6901C90.9511 160.096 91.9733 161.118 91.9733 162.379V165.423C91.9733 166.684 92.9955 167.707 94.2565 167.707H97.3008C98.5618 167.707 99.584 166.684 99.584 165.423V162.379C99.584 161.118 100.606 160.096 101.867 160.096H112.522C113.783 160.096 114.805 161.118 114.805 162.379V173.034C114.805 174.295 115.828 175.317 117.089 175.317H120.133C121.394 175.317 122.416 176.339 122.416 177.6V180.645C122.416 181.905 121.394 182.928 120.133 182.928H117.089C115.828 182.928 114.805 183.95 114.805 185.211V195.866C114.805 197.127 113.783 198.149 112.522 198.149H109.478C108.217 198.149 107.195 199.171 107.195 200.432V203.476C107.195 204.737 108.217 205.759 109.478 205.759H120.133C121.394 205.759 122.416 204.737 122.416 203.476V200.432C122.416 199.171 123.438 198.149 124.699 198.149H127.744C129.005 198.149 130.027 197.127 130.027 195.866V177.6C130.027 176.339 131.049 175.317 132.31 175.317H135.354C136.615 175.317 137.637 174.295 137.637 173.034V169.99C137.637 168.729 138.66 167.707 139.921 167.707H142.965C144.226 167.707 145.248 166.684 145.248 165.423V147.158C145.248 145.897 144.226 144.875 142.965 144.875H139.921C138.66 144.875 137.637 145.897 137.637 147.158V150.202C137.637 151.463 136.615 152.485 135.354 152.485H94.2565C92.9955 152.485 91.9733 151.463 91.9733 150.202V147.158ZM122.416 165.423C122.416 166.684 123.438 167.707 124.699 167.707H127.744C129.005 167.707 130.027 166.684 130.027 165.423V162.379C130.027 161.118 129.005 160.096 127.744 160.096H124.699C123.438 160.096 122.416 161.118 122.416 162.379V165.423Z" fill="white"/>
<path d="M63.8137 205.759H74.4687C75.7297 205.759 76.7519 206.782 76.7519 208.042V218.697C76.7519 219.958 75.7297 220.98 74.4687 220.98H63.8137C62.5528 220.98 61.5305 219.958 61.5305 218.697V208.042C61.5305 206.782 62.5528 205.759 63.8137 205.759Z" fill="white"/>
<path d="M91.9733 208.042C91.9733 206.782 90.9511 205.759 89.6901 205.759H86.6458C85.3848 205.759 84.3626 206.782 84.3626 208.042V218.697C84.3626 219.958 85.3848 220.98 86.6458 220.98H135.354C136.615 220.98 137.637 219.958 137.637 218.697V215.653C137.637 214.392 136.615 213.37 135.354 213.37H94.2565C92.9955 213.37 91.9733 212.348 91.9733 211.087V208.042Z" fill="white"/>
<path d="M170.363 167.707C169.102 167.707 168.08 168.729 168.08 169.99V173.034C168.08 174.295 169.102 175.317 170.363 175.317H173.408C174.669 175.317 175.691 174.295 175.691 173.034V169.99C175.691 168.729 174.669 167.707 173.408 167.707H170.363Z" fill="white"/>
<path fill-rule="evenodd" clip-rule="evenodd" d="M97.3008 114.433C98.5618 114.433 99.584 115.455 99.584 116.716V119.76C99.584 121.021 100.606 122.043 101.867 122.043H112.522C113.783 122.043 114.805 123.065 114.805 124.326V127.371C114.805 128.632 115.828 129.654 117.089 129.654H127.744C129.005 129.654 130.027 128.632 130.027 127.371V124.326C130.027 123.065 131.049 122.043 132.31 122.043H135.354C136.615 122.043 137.637 123.065 137.637 124.326V127.371C137.637 128.632 138.66 129.654 139.921 129.654H142.965C144.226 129.654 145.248 128.632 145.248 127.371V124.326C145.248 123.065 146.27 122.043 147.531 122.043H150.576C151.837 122.043 152.859 123.065 152.859 124.326V127.371C152.859 128.632 153.881 129.654 155.142 129.654H158.186C159.447 129.654 160.47 130.676 160.47 131.937V150.202C160.47 151.463 161.492 152.485 162.753 152.485H165.797C167.058 152.485 168.08 151.463 168.08 150.202V147.158C168.08 145.897 169.102 144.875 170.363 144.875H188.629C189.89 144.875 190.912 145.897 190.912 147.158V157.813C190.912 159.074 191.934 160.096 193.195 160.096H196.24C197.501 160.096 198.523 161.118 198.523 162.379V165.423C198.523 166.684 199.545 167.707 200.806 167.707H203.85C205.111 167.707 206.134 168.729 206.134 169.99V173.034C206.134 174.295 205.111 175.317 203.85 175.317H193.195C191.934 175.317 190.912 176.339 190.912 177.6V180.645C190.912 181.905 191.934 182.928 193.195 182.928H196.24C197.501 182.928 198.523 183.95 198.523 185.211V188.255C198.523 189.516 199.545 190.538 200.806 190.538H203.85C205.111 190.538 206.134 191.56 206.134 192.821V195.866C206.134 197.127 207.156 198.149 208.417 198.149H211.461C212.722 198.149 213.744 199.171 213.744 200.432V203.476C213.744 204.737 212.722 205.759 211.461 205.759H208.417C207.156 205.759 206.134 206.782 206.134 208.042V218.697C206.134 219.958 205.111 220.98 203.85 220.98H170.363C169.102 220.98 168.08 219.958 168.08 218.697V215.653C168.08 214.392 169.102 213.37 170.363 213.37H173.408C174.669 213.37 175.691 212.348 175.691 211.087V208.042C175.691 206.782 174.669 205.759 173.408 205.759H162.753C161.492 205.759 160.47 204.737 160.47 203.476V192.821C160.47 191.56 159.447 190.538 158.186 190.538H155.142C153.881 190.538 152.859 191.56 152.859 192.821V203.476C152.859 204.737 151.837 205.759 150.576 205.759H132.31C131.049 205.759 130.027 204.737 130.027 203.476V200.432C130.027 199.171 131.049 198.149 132.31 198.149H142.965C144.226 198.149 145.248 197.127 145.248 195.866V169.99C145.248 168.729 146.27 167.707 147.531 167.707H150.576C151.837 167.707 152.859 166.684 152.859 165.423V147.158C152.859 145.897 151.837 144.875 150.576 144.875H147.531C146.27 144.875 145.248 143.853 145.248 142.592V139.548C145.248 138.287 144.226 137.264 142.965 137.264H132.31C131.049 137.264 130.027 138.287 130.027 139.548V142.592C130.027 143.853 129.005 144.875 127.744 144.875H109.478C108.217 144.875 107.195 143.853 107.195 142.592V131.937C107.195 130.676 106.172 129.654 104.911 129.654H94.2565C92.9955 129.654 91.9733 128.632 91.9733 127.371V116.716C91.9733 115.455 92.9955 114.433 94.2565 114.433H97.3008ZM185.585 213.37C184.324 213.37 183.302 212.348 183.302 211.087V208.042C183.302 206.782 184.324 205.759 185.585 205.759H188.629C189.89 205.759 190.912 206.782 190.912 208.042V211.087C190.912 212.348 189.89 213.37 188.629 213.37H185.585ZM190.912 192.821C190.912 191.56 189.89 190.538 188.629 190.538H185.585C184.324 190.538 183.302 191.56 183.302 192.821V195.866C183.302 197.127 184.324 198.149 185.585 198.149H188.629C189.89 198.149 190.912 197.127 190.912 195.866V192.821ZM175.691 192.821C175.691 191.56 174.669 190.538 173.408 190.538H170.363C169.102 190.538 168.08 191.56 168.08 192.821V195.866C168.08 197.127 169.102 198.149 170.363 198.149H173.408C174.669 198.149 175.691 197.127 175.691 195.866V192.821ZM183.302 180.645V162.379C183.302 161.118 182.279 160.096 181.018 160.096H162.753C161.492 160.096 160.47 161.118 160.47 162.379V180.645C160.47 181.905 161.492 182.928 162.753 182.928H181.018C182.279 182.928 183.302 181.905 183.302 180.645Z" fill="white"/>
<path d="M137.637 2.5577C137.637 1.29674 138.66 0.274536 139.921 0.274536H142.965C144.226 0.274536 145.248 1.29674 145.248 2.5577V5.60192C145.248 6.86288 144.226 7.88508 142.965 7.88508H139.921C138.66 7.88508 137.637 6.86288 137.637 5.60192V2.5577Z" fill="white"/>
<path d="M152.859 10.1682C152.859 8.90729 153.881 7.88508 155.142 7.88508H158.186C159.447 7.88508 160.47 8.90729 160.47 10.1682V13.2125C160.47 14.4734 159.447 15.4956 158.186 15.4956H155.142C153.881 15.4956 152.859 14.4734 152.859 13.2125V10.1682Z" fill="white"/>
<path d="M147.531 15.4956C146.27 15.4956 145.248 16.5178 145.248 17.7788V20.823C145.248 22.084 146.27 23.1062 147.531 23.1062H150.576C151.837 23.1062 152.859 22.084 152.859 20.823V17.7788C152.859 16.5178 151.837 15.4956 150.576 15.4956H147.531Z" fill="white"/>
<path d="M61.5305 48.221C61.5305 46.96 62.5528 45.9378 63.8137 45.9378H66.858C68.119 45.9378 69.1412 46.96 69.1412 48.221V51.2652C69.1412 52.5262 68.119 53.5484 66.858 53.5484H63.8137C62.5528 53.5484 61.5305 52.5262 61.5305 51.2652V48.221Z" fill="white"/>
<path d="M139.921 45.9378C138.66 45.9378 137.637 46.96 137.637 48.221V51.2652C137.637 52.5262 138.66 53.5484 139.921 53.5484H142.965C144.226 53.5484 145.248 52.5262 145.248 51.2652V48.221C145.248 46.96 144.226 45.9378 142.965 45.9378H139.921Z" fill="white"/>
<path d="M61.5305 71.0526C61.5305 69.7917 62.5528 68.7695 63.8137 68.7695H66.858C68.119 68.7695 69.1412 69.7917 69.1412 71.0526V74.0968C69.1412 75.3578 68.119 76.38 66.858 76.38H63.8137C62.5528 76.38 61.5305 75.3578 61.5305 74.0968V71.0526Z" fill="white"/>
<path d="M2.92823 76.38C1.66725 76.38 0.64502 77.4022 0.64502 78.6632V81.7074C0.64502 82.9684 1.66725 83.9906 2.92823 83.9906H5.9725C7.23348 83.9906 8.25571 82.9684 8.25571 81.7074V78.6632C8.25571 77.4022 7.23348 76.38 5.9725 76.38H2.92823Z" fill="white"/>
<path d="M46.3092 78.6632C46.3092 77.4022 47.3314 76.38 48.5924 76.38H51.6366C52.8976 76.38 53.9198 77.4022 53.9198 78.6632V81.7074C53.9198 82.9684 52.8976 83.9906 51.6366 83.9906H48.5924C47.3314 83.9906 46.3092 82.9684 46.3092 81.7074V78.6632Z" fill="white"/>
<path d="M71.4244 76.38C70.1635 76.38 69.1412 77.4022 69.1412 78.6632V81.7074C69.1412 82.9684 70.1635 83.9906 71.4244 83.9906H74.4687C75.7297 83.9906 76.7519 82.9684 76.7519 81.7074V78.6632C76.7519 77.4022 75.7297 76.38 74.4687 76.38H71.4244Z" fill="white"/>
<path d="M168.08 78.6632C168.08 77.4022 169.102 76.38 170.363 76.38H173.408C174.669 76.38 175.691 77.4022 175.691 78.6632V81.7074C175.691 82.9684 174.669 83.9906 173.408 83.9906H170.363C169.102 83.9906 168.08 82.9684 168.08 81.7074V78.6632Z" fill="white"/>
<path d="M25.7603 83.9906C24.4993 83.9906 23.4771 85.0128 23.4771 86.2737V89.3179C23.4771 90.5789 24.4993 91.6011 25.7603 91.6011H28.8046C30.0656 91.6011 31.0878 90.5789 31.0878 89.3179V86.2737C31.0878 85.0128 30.0656 83.9906 28.8046 83.9906H25.7603Z" fill="white"/>
<path d="M38.6985 86.2737C38.6985 85.0128 39.7207 83.9906 40.9817 83.9906H44.026C45.2869 83.9906 46.3092 85.0128 46.3092 86.2737V89.3179C46.3092 90.5789 45.2869 91.6011 44.026 91.6011H40.9817C39.7207 91.6011 38.6985 90.5789 38.6985 89.3179V86.2737Z" fill="white"/>
<path d="M193.195 83.9906C191.934 83.9906 190.912 85.0128 190.912 86.2737V89.3179C190.912 90.5789 191.934 91.6011 193.195 91.6011H196.24C197.501 91.6011 198.523 90.5789 198.523 89.3179V86.2737C198.523 85.0128 197.501 83.9906 196.24 83.9906H193.195Z" fill="white"/>
<path d="M15.8664 93.8843C15.8664 92.6233 16.8886 91.6011 18.1496 91.6011H21.1939C22.4549 91.6011 23.4771 92.6233 23.4771 93.8843V96.9285C23.4771 98.1895 22.4549 99.2117 21.1939 99.2117H18.1496C16.8886 99.2117 15.8664 98.1895 15.8664 96.9285V93.8843Z" fill="white"/>
<path d="M48.5924 91.6011C47.3314 91.6011 46.3092 92.6233 46.3092 93.8843V96.9285C46.3092 98.1895 47.3314 99.2117 48.5924 99.2117H51.6366C52.8976 99.2117 53.9198 98.1895 53.9198 96.9285V93.8843C53.9198 92.6233 52.8976 91.6011 51.6366 91.6011H48.5924Z" fill="white"/>
<path d="M23.4771 101.495C23.4771 100.234 24.4993 99.2117 25.7603 99.2117H28.8046C30.0656 99.2117 31.0878 100.234 31.0878 101.495V104.539C31.0878 105.8 30.0656 106.822 28.8046 106.822H25.7603C24.4993 106.822 23.4771 105.8 23.4771 104.539V101.495Z" fill="white"/>
<path d="M94.2565 99.2117C92.9955 99.2117 91.9733 100.234 91.9733 101.495V104.539C91.9733 105.8 92.9955 106.822 94.2565 106.822H97.3008C98.5618 106.822 99.584 105.8 99.584 104.539V101.495C99.584 100.234 98.5618 99.2117 97.3008 99.2117H94.2565Z" fill="white"/>
<path d="M183.302 101.495C183.302 100.234 184.324 99.2117 185.585 99.2117H188.629C189.89 99.2117 190.912 100.234 190.912 101.495V104.539C190.912 105.8 189.89 106.822 188.629 106.822H185.585C184.324 106.822 183.302 105.8 183.302 104.539V101.495Z" fill="white"/>
<path d="M18.1496 106.822C16.8886 106.822 15.8664 107.844 15.8664 109.105V112.15C15.8664 113.411 16.8886 114.433 18.1496 114.433H21.1939C22.4549 114.433 23.4771 113.411 23.4771 112.15V109.105C23.4771 107.844 22.4549 106.822 21.1939 106.822H18.1496Z" fill="white"/>
<path d="M122.416 116.716C122.416 115.455 123.438 114.433 124.699 114.433H127.744C129.005 114.433 130.027 115.455 130.027 116.716V119.76C130.027 121.021 129.005 122.043 127.744 122.043H124.699C123.438 122.043 122.416 121.021 122.416 119.76V116.716Z" fill="white"/>
<path d="M216.028 114.433C214.767 114.433 213.744 115.455 213.744 116.716V119.76C213.744 121.021 214.767 122.043 216.028 122.043H219.072C220.333 122.043 221.355 121.021 221.355 119.76V116.716C221.355 115.455 220.333 114.433 219.072 114.433H216.028Z" fill="white"/>
<path d="M46.3092 124.326C46.3092 123.065 47.3314 122.043 48.5924 122.043H51.6366C52.8976 122.043 53.9198 123.065 53.9198 124.326V127.371C53.9198 128.632 52.8976 129.654 51.6366 129.654H48.5924C47.3314 129.654 46.3092 128.632 46.3092 127.371V124.326Z" fill="white"/>
<path d="M63.8137 122.043C62.5528 122.043 61.5305 123.065 61.5305 124.326V127.371C61.5305 128.632 62.5528 129.654 63.8137 129.654H66.858C68.119 129.654 69.1412 128.632 69.1412 127.371V124.326C69.1412 123.065 68.119 122.043 66.858 122.043H63.8137Z" fill="white"/>
<path d="M31.0878 131.937C31.0878 130.676 32.11 129.654 33.371 129.654H36.4153C37.6762 129.654 38.6985 130.676 38.6985 131.937V134.981C38.6985 136.242 37.6762 137.264 36.4153 137.264H33.371C32.11 137.264 31.0878 136.242 31.0878 134.981V131.937Z" fill="white"/>
<path d="M56.2031 129.654C54.9421 129.654 53.9198 130.676 53.9198 131.937V134.981C53.9198 136.242 54.9421 137.264 56.2031 137.264H59.2473C60.5083 137.264 61.5305 136.242 61.5305 134.981V131.937C61.5305 130.676 60.5083 129.654 59.2473 129.654H56.2031Z" fill="white"/>
<path d="M69.1412 131.937C69.1412 130.676 70.1635 129.654 71.4244 129.654H74.4687C75.7297 129.654 76.7519 130.676 76.7519 131.937V134.981C76.7519 136.242 75.7297 137.264 74.4687 137.264H71.4244C70.1635 137.264 69.1412 136.242 69.1412 134.981V131.937Z" fill="white"/>
<path d="M94.2565 137.264C92.9955 137.264 91.9733 138.287 91.9733 139.548V142.592C91.9733 143.853 92.9955 144.875 94.2565 144.875H97.3008C98.5618 144.875 99.584 143.853 99.584 142.592V139.548C99.584 138.287 98.5618 137.264 97.3008 137.264H94.2565Z" fill="white"/>
<path d="M190.912 139.548C190.912 138.287 191.934 137.264 193.195 137.264H196.24C197.501 137.264 198.523 138.287 198.523 139.548V142.592C198.523 143.853 197.501 144.875 196.24 144.875H193.195C191.934 144.875 190.912 143.853 190.912 142.592V139.548Z" fill="white"/>
<path d="M48.5924 152.485C47.3314 152.485 46.3092 153.508 46.3092 154.769V157.813C46.3092 159.074 47.3314 160.096 48.5924 160.096H51.6366C52.8976 160.096 53.9198 159.074 53.9198 157.813V154.769C53.9198 153.508 52.8976 152.485 51.6366 152.485H48.5924Z" fill="white"/>
<path d="M99.584 169.99C99.584 168.729 100.606 167.707 101.867 167.707H104.911C106.172 167.707 107.195 168.729 107.195 169.99V173.034C107.195 174.295 106.172 175.317 104.911 175.317H101.867C100.606 175.317 99.584 174.295 99.584 173.034V169.99Z" fill="white"/>
<path d="M206.134 177.6C206.134 176.339 207.156 175.317 208.417 175.317H211.461C212.722 175.317 213.744 176.339 213.744 177.6V180.645C213.744 181.905 212.722 182.928 211.461 182.928H208.417C207.156 182.928 206.134 181.905 206.134 180.645V177.6Z" fill="white"/>
<path d="M216.028 190.538C214.767 190.538 213.744 191.56 213.744 192.821V195.866C213.744 197.127 214.767 198.149 216.028 198.149H219.072C220.333 198.149 221.355 197.127 221.355 195.866V192.821C221.355 191.56 220.333 190.538 219.072 190.538H216.028Z" fill="white"/>
<path d="M213.744 208.042C213.744 206.782 214.767 205.759 216.028 205.759H219.072C220.333 205.759 221.355 206.782 221.355 208.042V211.087C221.355 212.348 220.333 213.37 219.072 213.37H216.028C214.767 213.37 213.744 212.348 213.744 211.087V208.042Z" fill="white"/>
<path d="M147.531 213.37C146.27 213.37 145.248 214.392 145.248 215.653V218.697C145.248 219.958 146.27 220.98 147.531 220.98H150.576C151.837 220.98 152.859 219.958 152.859 218.697V215.653C152.859 214.392 151.837 213.37 150.576 213.37H147.531Z" fill="white"/>
</svg>
