<svg width="379" height="244" viewBox="0 0 379 244" fill="none" xmlns="http://www.w3.org/2000/svg">
<path d="M139.695 5.97992C154.763 -4.50727 175.548 -0.842529 186.12 14.1655L311.271 191.831C321.842 206.839 318.198 227.507 303.131 237.995C288.064 248.482 267.278 244.817 256.706 229.809L131.556 52.144C120.984 37.1359 124.628 16.4673 139.695 5.97992ZM14.1885 5.9809C29.2562 -4.50595 50.0419 -0.841436 60.6143 14.1664L185.769 191.829C196.341 206.836 192.696 227.505 177.629 237.992C162.561 248.478 141.776 244.813 131.203 229.805L6.04886 52.143C-4.52338 37.1351 -0.879171 16.4678 14.1885 5.9809ZM275.457 16.3676C290.525 5.88038 311.31 9.54501 321.882 24.5532L372.743 96.7573C383.315 111.765 379.671 132.433 364.604 142.92C349.536 153.408 328.752 149.743 318.18 134.735L267.317 62.5307C256.746 47.5227 260.39 26.855 275.457 16.3676Z" fill="white"/>
</svg>
